<svg width="173" height="154" viewBox="0 0 173 154" fill="none" xmlns="http://www.w3.org/2000/svg">
<path d="M44.25 19.5C42.0409 19.5 40.25 21.2909 40.25 23.5C40.25 25.7091 42.0409 27.5 44.25 27.5V19.5ZM161 39.5V107.5H169V39.5H161ZM149 119.5H20V127.5H149V119.5ZM8 107.5V23.5H0V107.5H8ZM8 23.5V20H0V23.5H8ZM84.5 27.5H149V19.5H84.5V27.5ZM8 20C8 13.3726 13.3726 8 20 8V0C8.9543 0 0 8.9543 0 20H8ZM20 119.5C13.3726 119.5 8 114.127 8 107.5H0C0 118.546 8.9543 127.5 20 127.5V119.5ZM161 107.5C161 114.127 155.627 119.5 149 119.5V127.5C160.046 127.5 169 118.546 169 107.5H161ZM68.5 8C75.1274 8 80.5 13.3726 80.5 20H88.5C88.5 8.9543 79.5457 0 68.5 0V8ZM169 39.5C169 28.4543 160.046 19.5 149 19.5V27.5C155.627 27.5 161 32.8726 161 39.5H169ZM20 8H44.25V0H20V8ZM44.25 8H68.5V0H44.25V8ZM84.5 19.5H44.25V27.5H84.5V19.5ZM80.5 20V23.5H88.5V20H80.5Z" fill="#00F3C8"/>
<path d="M118.005 150.189L169.155 134.994L135.601 66M118.005 150.189L100 121.442L135.601 66M118.005 150.189L135.601 66" stroke="white" stroke-width="6.64865" stroke-linejoin="round"/>
</svg>
